<svg width="34" height="23" viewBox="0 0 34 23" fill="none" xmlns="http://www.w3.org/2000/svg">
<path fill-rule="evenodd" clip-rule="evenodd" d="M0.125 1.65625C0.125 1.28329 0.273158 0.925604 0.536881 0.661881C0.800604 0.398158 1.15829 0.25 1.53125 0.25H32.4688C32.8417 0.25 33.1994 0.398158 33.4631 0.661881C33.7268 0.925604 33.875 1.28329 33.875 1.65625C33.875 2.02921 33.7268 2.3869 33.4631 2.65062C33.1994 2.91434 32.8417 3.0625 32.4688 3.0625H1.53125C1.15829 3.0625 0.800604 2.91434 0.536881 2.65062C0.273158 2.3869 0.125 2.02921 0.125 1.65625ZM0.125 11.5C0.125 11.127 0.273158 10.7694 0.536881 10.5056C0.800604 10.2419 1.15829 10.0938 1.53125 10.0938H32.4688C32.8417 10.0938 33.1994 10.2419 33.4631 10.5056C33.7268 10.7694 33.875 11.127 33.875 11.5C33.875 11.873 33.7268 12.2306 33.4631 12.4944C33.1994 12.7581 32.8417 12.9062 32.4688 12.9062H1.53125C1.15829 12.9062 0.800604 12.7581 0.536881 12.4944C0.273158 12.2306 0.125 11.873 0.125 11.5ZM0.125 21.3438C0.125 20.9708 0.273158 20.6131 0.536881 20.3494C0.800604 20.0857 1.15829 19.9375 1.53125 19.9375H32.4688C32.8417 19.9375 33.1994 20.0857 33.4631 20.3494C33.7268 20.6131 33.875 20.9708 33.875 21.3438C33.875 21.7167 33.7268 22.0744 33.4631 22.3381C33.1994 22.6018 32.8417 22.75 32.4688 22.75H1.53125C1.15829 22.75 0.800604 22.6018 0.536881 22.3381C0.273158 22.0744 0.125 21.7167 0.125 21.3438Z" fill="#1C429A"/>
</svg>
